# xmcd
#
# Track frame offsets:
#	150
#	15362
#	32719
#	55092
#	82674
#	97147
#	113305
#	137474
#	162311
#	181647
#
# Disc length: 2605 seconds
#
# Revision: 1
# Processed by: cddbd v1.5.1PL2 Copyright (c) Steve Scherf et al.
# Submitted via: audiograbber 1.83.01
#
DISCID=630a2b0a
DTITLE=Matt Andersen - Solo at Sessions
DYEAR=2005
DGENRE=Blues
TTITLE0=Leavin' Blues
TTITLE1=Ain't No Sunshine
TTITLE2=When My Angel Gets The Blues
TTITLE3=I Play The Fool For You
TTITLE4=Heart Of Gold
TTITLE5=Rollin' Home
TTITLE6=Have You Got The Blues
TTITLE7=No Woman, No Cry
TTITLE8=Tell Me
TTITLE9=My Old Friend the Blues
EXTD=www.stubbyfingers.ca
EXTT0=
EXTT1=
EXTT2=
EXTT3=
EXTT4=
EXTT5=
EXTT6=
EXTT7=
EXTT8=
EXTT9=
PLAYORDER=
